Coordinates
version=1
nRows=23
nColumns=50
inDegrees=no

Units are S.I. units (second, meters, Newtons, ...)
If the header above contains a line with 'inDegrees', this indicates whether rotational values are in degrees (yes) or radians (no).

endheader
time	pelvis_tilt	pelvis_list	pelvis_rotation	pelvis_tx	pelvis_ty	pelvis_tz	hip_flexion_r	hip_adduction_r	hip_rotation_r	knee_angle_r	ankle_angle_r	subtalar_angle_r	mtp_angle_r	hip_flexion_l	hip_adduction_l	hip_rotation_l	knee_angle_l	ankle_angle_l	subtalar_angle_l	mtp_angle_l	lumbar_bending	lumbar_extension	lumbar_twist	thorax_bending	thorax_extension	thorax_twist	head_bending	head_extension	head_twist	scapula_abduction_r	scapula_elevation_r	scapula_upward_rot_r	shoulder_r_x	shoulder_r_y	shoulder_r_z	elbow_flexion_r	pro_sup_r	wrist_flexion_r	wrist_deviation_r	scapula_abduction_l	scapula_elevation_l	scapula_upward_rot_l	shoulder_l_x	shoulder_l_y	shoulder_l_z	elbow_flexion_l	pro_sup_l	wrist_flexion_l	wrist_deviation_l
5.725	-0.00619283	0.00731902	0.0705786	1.61761	0.980191	-0.517773	0.208108	-0.0790008	-0.0420657	0.579209	0.383988	-0.105617	-0.073594	0.241437	-0.0532857	0.134598	0.54242	0.374198	-0.122773	-0.0530301	6.2866	-0.506771	6.26655	0.0739147	0.497761	-6.3261	-0.0622318	0.0478996	0.202201	-1.30921	0.0154602	6.1968	-0.676112	0.270259	-0.351834	1.47864	-0.428795	-0.0486469	-0.27929	-1.37313	0.0386648	-0.189345	0.574348	-0.521018	-0.471917	-4.9167	-0.425471	-0.0197168	-0.404747
5.73333	-0.0115129	0.00740048	0.0707963	1.6191	0.980691	-0.517761	0.207071	-0.0797477	-0.0445406	0.569377	0.380989	-0.102074	-0.0729331	0.240596	-0.0534894	0.133595	0.531636	0.369421	-0.120953	-0.053626	6.28664	-0.505267	6.26647	0.0738126	0.498439	-6.32705	-0.0616731	0.0495694	0.201844	-1.31068	0.0146357	6.19443	-0.683425	0.264535	-0.341529	1.49829	-0.419655	-0.0533698	-0.280367	-1.37485	0.0383083	-0.192329	0.584835	-0.523063	-0.467399	-4.89618	-0.429463	-0.0171404	-0.411492
5.74167	-0.0161951	0.00803237	0.0703565	1.62047	0.981024	-0.517646	0.206606	-0.0808603	-0.0459646	0.561427	0.378676	-0.0979943	-0.0724922	0.240247	-0.0538761	0.130168	0.523436	0.366217	-0.116309	-0.0554482	6.28584	-0.50402	6.26643	0.0737621	0.497764	-6.3278	-0.0614906	0.051992	0.200865	-1.31201	0.0129915	6.19047	-0.692934	0.259492	-0.330629	1.5184	-0.420948	-0.0549906	-0.28857	-1.3768	0.0372564	-0.196318	0.597915	-0.524444	-0.461205	-4.87411	-0.427494	-0.0187171	-0.418429
5.75	-0.0200176	0.00888553	0.0702405	1.62179	0.981147	-0.517501	0.206095	-0.0822534	-0.0475695	0.555313	0.377242	-0.0939483	-0.0724873	0.239489	-0.0546342	0.125243	0.51626	0.364613	-0.108433	-0.058327	6.28419	-0.50382	6.26592	0.0742682	0.496822	-6.32887	-0.0610145	0.0545386	0.199649	-1.31258	0.0114854	6.18789	-0.70071	0.255077	-0.319431	1.53831	-0.42525	-0.0564876	-0.29495	-1.37846	0.0364093	-0.199664	0.610429	-0.523778	-0.454607	-4.85027	-0.419783	-0.0248774	-0.420542
5.75833	-0.0236769	0.00932739	0.0707606	1.623	0.981092	-0.517409	0.206068	-0.0835231	-0.0502519	0.550566	0.376226	-0.090208	-0.0724852	0.238939	-0.0557014	0.120723	0.509417	0.363401	-0.100328	-0.0612703	6.28256	-0.504344	6.26516	0.0754982	0.49603	-6.32966	-0.0601406	0.0563491	0.198094	-1.31285	0.0100417	6.18625	-0.707964	0.249774	-0.308183	1.55785	-0.426073	-0.0588482	-0.29966	-1.38007	0.0355505	-0.202079	0.621664	-0.521597	-0.447583	-4.82555	-0.413431	-0.028782	-0.421437
5.76667	-0.0278484	0.00948372	0.0715298	1.62402	0.980931	-0.517371	0.20727	-0.0847029	-0.0533193	0.546902	0.375705	-0.0865966	-0.0722657	0.239732	-0.0564625	0.117593	0.503823	0.361603	-0.0949213	-0.0635528	6.28126	-0.504929	6.26482	0.0771912	0.495699	-6.32969	-0.0596889	0.0574399	0.195826	-1.31374	0.00830105	6.18328	-0.71786	0.241483	-0.29781	1.57727	-0.417814	-0.0590444	-0.301164	-1.38196	0.034051	-0.204789	0.633296	-0.519152	-0.439923	-4.80035	-0.410081	-0.0269515	-0.421166
5.775	-0.0319341	0.00978002	0.0719529	1.62497	0.980673	-0.517352	0.209254	-0.0861821	-0.0562242	0.544782	0.376749	-0.0819454	-0.0722904	0.241647	-0.056652	0.1152	0.500848	0.360141	-0.0920008	-0.0656403	6.28025	-0.505695	6.26519	0.0786421	0.495496	-6.32923	-0.0600298	0.059067	0.193265	-1.31514	0.00650483	6.17968	-0.728293	0.232225	-0.288524	1.59782	-0.409879	-0.0582573	-0.301164	-1.38411	0.0321051	-0.208281	0.64663	-0.51623	-0.4313	-4.77435	-0.407495	-0.0239636	-0.419978
5.78333	-0.0351356	0.010245	0.0720592	1.62594	0.98034	-0.517356	0.21091	-0.0879581	-0.059192	0.543805	0.37885	-0.0763967	-0.0725602	0.243436	-0.0565428	0.11324	0.499654	0.3598	-0.0896647	-0.0680831	6.27972	-0.507322	6.26595	0.0794979	0.495178	-6.3283	-0.060892	0.0619725	0.191893	-1.31668	0.00486563	6.17646	-0.737726	0.22304	-0.279283	1.6192	-0.406486	-0.0579143	-0.301844	-1.38622	0.0299987	-0.212503	0.661803	-0.512176	-0.4212	-4.7477	-0.403941	-0.0221947	-0.420132
5.79167	-0.0373785	0.0105065	0.0721622	1.62694	0.979992	-0.517365	0.211613	-0.0894695	-0.0622236	0.542995	0.380754	-0.0710283	-0.0726302	0.24433	-0.0567194	0.111462	0.498459	0.360111	-0.0869776	-0.0705169	6.27991	-0.510107	6.26641	0.0801201	0.494713	-6.32622	-0.0624269	0.0656994	0.191804	-1.31816	0.00346143	6.17389	-0.745992	0.212849	-0.270028	1.64126	-0.404261	-0.057151	-0.303015	-1.38804	0.0278137	-0.216952	0.677542	-0.50737	-0.409619	-4.72106	-0.400531	-0.0194836	-0.421535
5.8	-0.0394599	0.0104868	0.0720557	1.62796	0.979586	-0.51733	0.212136	-0.0904977	-0.0646539	0.542346	0.382721	-0.066235	-0.07258	0.245167	-0.0573968	0.108932	0.497523	0.360887	-0.0839962	-0.0724554	6.28014	-0.513105	6.26617	0.0811624	0.494024	-6.32303	-0.0648196	0.0682175	0.190499	-1.31918	0.00217653	6.17208	-0.753303	0.201725	-0.261394	1.66333	-0.400346	-0.0551759	-0.304409	-1.38962	0.0258571	-0.220468	0.692021	-0.501725	-0.397418	-4.69426	-0.397696	-0.0167715	-0.42227
5.80833	-0.0420474	0.0105102	0.0718602	1.62888	0.97908	-0.517256	0.213721	-0.0913084	-0.0657529	0.542625	0.38472	-0.0630963	-0.0723887	0.247079	-0.0579189	0.106669	0.497639	0.361957	-0.0813715	-0.0738889	6.27967	-0.515672	6.26563	0.0825987	0.493328	-6.31997	-0.0672947	0.0688466	0.186852	-1.31958	0.000845223	6.17066	-0.760755	0.190368	-0.252638	1.68418	-0.395088	-0.0524988	-0.306026	-1.39108	0.0243776	-0.222461	0.704877	-0.494452	-0.384959	-4.66685	-0.394449	-0.016769	-0.422468
5.81667	-0.0449299	0.0107693	0.0724336	1.62968	0.978547	-0.517219	0.216248	-0.0922171	-0.0664091	0.543951	0.386432	-0.0623573	-0.0718019	0.250125	-0.0574828	0.107038	0.498855	0.362973	-0.0800948	-0.0748773	6.27899	-0.518208	6.26552	0.0836079	0.49328	-6.31785	-0.0683914	0.0690679	0.183388	-1.31986	-0.000348683	6.16912	-0.767944	0.178168	-0.24429	1.70451	-0.389834	-0.049712	-0.307699	-1.39226	0.02341	-0.223397	0.716993	-0.485821	-0.37183	-4.63948	-0.391306	-0.0179843	-0.423176
5.825	-0.0479363	0.0111796	0.0736342	1.63041	0.978029	-0.517265	0.219445	-0.0932347	-0.0675603	0.54599	0.38812	-0.0630821	-0.070902	0.254012	-0.0561335	0.109766	0.501181	0.363936	-0.081041	-0.0754537	6.27881	-0.521278	6.2663	0.0836761	0.495336	-6.31603	-0.067176	0.0685868	0.183953	-1.32045	-0.00138939	6.16702	-0.774574	0.165461	-0.238374	1.72568	-0.385001	-0.0493748	-0.310506	-1.39298	0.0225223	-0.22422	0.728941	-0.47728	-0.358838	-4.61292	-0.389883	-0.0194431	-0.425586
5.83333	-0.050881	0.0115836	0.0738679	1.63106	0.977448	-0.517293	0.223665	-0.093931	-0.0674878	0.549221	0.389901	-0.0644814	-0.0699594	0.258027	-0.05461	0.11264	0.504358	0.364904	-0.0848394	-0.0756908	6.27943	-0.525169	6.26787	0.0826694	0.498308	-6.31304	-0.065499	0.0676676	0.185591	-1.32112	-0.00248178	6.16433	-0.781633	0.15265	-0.23369	1.74804	-0.380363	-0.0537546	-0.314906	-1.39343	0.021401	-0.224471	0.740245	-0.469106	-0.345586	-4.58702	-0.391142	-0.0228725	-0.429709
5.84167	-0.053081	0.0118932	0.0724654	1.6316	0.976739	-0.517181	0.228385	-0.0940498	-0.0649609	0.55403	0.391752	-0.0663031	-0.0690755	0.261203	-0.0536276	0.114156	0.507942	0.36627	-0.0896748	-0.0757736	6.28063	-0.529723	6.26942	0.080648	0.498284	-6.30873	-0.0667754	0.0685421	0.179426	-1.32135	-0.00360399	6.16263	-0.788038	0.139906	-0.226615	1.77067	-0.376928	-0.0606981	-0.319005	-1.39366	0.0205815	-0.221967	0.74961	-0.459293	-0.329945	-4.56152	-0.394499	-0.0277619	-0.43281
5.85	-0.0543299	0.0121218	0.0699707	1.632	0.975949	-0.516895	0.233085	-0.0937227	-0.0608711	0.560142	0.393814	-0.068193	-0.0680787	0.263517	-0.0534216	0.113835	0.51185	0.36841	-0.093198	-0.0756864	6.28151	-0.534763	6.27048	0.0786837	0.495405	-6.3042	-0.0700628	0.0708267	0.168264	-1.32097	-0.00444525	6.16375	-0.791184	0.128247	-0.216925	1.79166	-0.375997	-0.0665183	-0.321794	-1.39332	0.0203952	-0.216509	0.756345	-0.446221	-0.312498	-4.5369	-0.397638	-0.0334204	-0.435152
5.85833	-0.0549996	0.0123284	0.0670574	1.6323	0.975177	-0.516566	0.237716	-0.093115	-0.0562684	0.567021	0.396735	-0.070393	-0.0669844	0.265538	-0.0534682	0.112686	0.516392	0.371217	-0.0962801	-0.0750779	6.28172	-0.540821	6.27164	0.0779675	0.49471	-6.29964	-0.0707039	0.0716179	0.166567	-1.32026	-0.00443238	6.16661	-0.791332	0.116943	-0.207932	1.81004	-0.376791	-0.0689503	-0.323973	-1.39193	0.0205012	-0.210997	0.761497	-0.431265	-0.295783	-4.51457	-0.398516	-0.0391401	-0.440288
5.86667	-0.0555195	0.0121897	0.0668344	1.63279	0.97446	-0.5166	0.240649	-0.092623	-0.0541859	0.572731	0.400643	-0.0732985	-0.0659648	0.268234	-0.0528547	0.114258	0.522278	0.374601	-0.0997919	-0.0742758	6.2825	-0.546746	6.2719	0.0782449	0.495275	-6.29577	-0.0696017	0.0716114	0.170625	-1.31924	-0.00390416	6.16907	-0.792427	0.1041	-0.200302	1.82707	-0.377314	-0.0671632	-0.325566	-1.38987	0.020753	-0.20734	0.76677	-0.415909	-0.279116	-4.49409	-0.397353	-0.042922	-0.447007
5.875	-0.056486	0.012115	0.0697385	1.63336	0.973591	-0.517009	0.243267	-0.093027	-0.0546996	0.578562	0.40489	-0.0769364	-0.0649138	0.272566	-0.050827	0.119641	0.529619	0.378345	-0.10459	-0.0735633	6.28392	-0.551947	6.27169	0.078574	0.494232	-6.29377	-0.0698179	0.0736796	0.170861	-1.31821	-0.00350028	6.17205	-0.794581	0.0903809	-0.192448	1.84434	-0.377522	-0.0664023	-0.327275	-1.38801	0.0208427	-0.204103	0.771718	-0.400536	-0.261692	-4.47328	-0.397305	-0.0475909	-0.451739
5.88333	-0.0586598	0.0129072	0.0725971	1.63371	0.972397	-0.517427	0.248982	-0.0943557	-0.053697	0.587315	0.409343	-0.0818236	-0.0635585	0.279444	-0.047648	0.125118	0.538865	0.382821	-0.109543	-0.0728712	6.2844	-0.557377	6.27255	0.0788356	0.494574	-6.29336	-0.0705268	0.0755872	0.169379	-1.31756	-0.00342678	6.17658	-0.794775	0.078517	-0.185372	1.86212	-0.37895	-0.0717307	-0.330173	-1.38683	0.0202843	-0.199674	0.775523	-0.386016	-0.246083	-4.45136	-0.400613	-0.0564946	-0.454068
5.89167	-0.0619123	0.0140739	0.0743703	1.63376	0.971018	-0.517725	0.257726	-0.0956648	-0.0501844	0.598598	0.414672	-0.0874565	-0.0619926	0.288636	-0.0444243	0.128997	0.54986	0.38821	-0.112909	-0.0721676	6.28364	-0.563966	6.2739	0.0799329	0.498966	-6.29353	-0.0704481	0.0750304	0.170664	-1.31689	-0.00344159	6.18215	-0.793792	0.0693487	-0.180659	1.88038	-0.381048	-0.0774847	-0.332589	-1.38628	0.0192173	-0.194593	0.77859	-0.371876	-0.233168	-4.42959	-0.40547	-0.0655183	-0.45602
5.9	-0.0649771	0.0143968	0.0761063	1.63352	0.969665	-0.517944	0.266741	-0.0960883	-0.0471292	0.610274	0.42052	-0.0922905	-0.0603828	0.297784	-0.042196	0.133134	0.560422	0.393575	-0.115444	-0.0709492	6.28311	-0.571939	6.27484	0.0820788	0.504016	-6.29392	-0.0705556	0.0746595	0.171805	-1.3157	-0.00357791	6.18796	-0.794176	0.0612731	-0.174221	1.8976	-0.382096	-0.0821046	-0.336473	-1.38606	0.0180815	-0.189585	0.780958	-0.356411	-0.219491	-4.40944	-0.409561	-0.0727971	-0.46098
5.90833	-0.0671402	0.0136372	0.079242	1.63324	0.968347	-0.51824	0.273702	-0.0959082	-0.0471777	0.620694	0.426388	-0.0962982	-0.0588971	0.305961	-0.0407354	0.138943	0.570781	0.399601	-0.117441	-0.0694174	6.28382	-0.580553	6.27446	0.0845493	0.506513	-6.29429	-0.0716593	0.075965	0.168976	-1.31373	-0.00373958	6.1938	-0.794093	0.0515636	-0.165897	1.91479	-0.382438	-0.0866217	-0.33995	-1.38561	0.0172313	-0.184617	0.782316	-0.339493	-0.20368	-4.39039	-0.412473	-0.0802915	-0.467274
